<svg xmlns="http://www.w3.org/2000/svg" xmlns:xlink="http://www.w3.org/1999/xlink" width="1920" zoomAndPan="magnify" viewBox="0 0 1440 809.999993" height="1080" preserveAspectRatio="xMidYMid meet" version="1.0"><defs><clipPath id="id1"><path d="M 558.203125 243 L 881.453125 243 L 881.453125 567 L 558.203125 567 Z M 558.203125 243 " clip-rule="nonzero"/></clipPath></defs><rect x="-144" width="1728" fill="#ffffff" y="-80.999999" height="971.999992" fill-opacity="1"/><rect x="-144" width="1728" fill="#ffffff" y="-80.999999" height="971.999992" fill-opacity="1"/><rect x="-144" width="1728" fill="#ffffff" y="-80.999999" height="971.999992" fill-opacity="1"/><g clip-path="url(#id1)"><path fill="#000000" d="M 834.117188 290.480469 C 819.28125 275.609375 801.996094 263.933594 782.746094 255.777344 C 762.8125 247.328125 741.640625 243.042969 719.828125 243.042969 C 698.011719 243.042969 676.84375 247.328125 656.910156 255.777344 C 637.660156 263.933594 620.375 275.609375 605.535156 290.480469 C 590.695312 305.347656 579.042969 322.667969 570.902344 341.957031 C 562.472656 361.929688 558.195312 383.140625 558.195312 405 C 558.195312 426.859375 562.472656 448.070312 570.902344 468.042969 C 579.042969 487.332031 590.695312 504.652344 605.535156 519.519531 C 620.375 534.390625 637.660156 546.066406 656.910156 554.222656 C 676.84375 562.671875 698.011719 566.957031 719.828125 566.957031 C 741.640625 566.957031 762.8125 562.671875 782.746094 554.222656 C 801.996094 546.066406 819.28125 534.390625 834.117188 519.519531 C 848.957031 504.652344 860.609375 487.332031 868.753906 468.042969 C 877.183594 448.070312 881.460938 426.859375 881.460938 405 C 881.460938 383.140625 877.183594 361.929688 868.753906 341.957031 C 860.609375 322.667969 848.957031 305.347656 834.117188 290.480469 " fill-opacity="1" fill-rule="nonzero"/></g><path fill="#ff0000" d="M 667.398438 343.835938 L 667.398438 466.164062 L 636.933594 466.164062 L 636.933594 400.582031 C 636.933594 391.109375 636.707031 385.417969 636.253906 383.503906 C 635.800781 381.589844 634.558594 380.140625 632.523438 379.160156 C 630.484375 378.175781 625.949219 377.6875 618.910156 377.6875 L 615.894531 377.6875 L 615.894531 363.425781 C 630.625 360.246094 641.808594 353.71875 649.449219 343.835938 L 667.398438 343.835938 " fill-opacity="1" fill-rule="nonzero"/><path fill="#ff0000" d="M 720.257812 370.507812 C 720.257812 366.378906 719.890625 363.644531 719.164062 362.308594 C 718.433594 360.976562 717.039062 360.308594 714.980469 360.308594 C 712.96875 360.308594 711.609375 361.023438 710.90625 362.460938 C 710.203125 363.898438 709.851562 366.578125 709.851562 370.507812 L 709.851562 379.800781 C 709.851562 383.480469 710.253906 386.023438 711.058594 387.433594 C 711.863281 388.84375 713.21875 389.546875 715.128906 389.546875 C 717.140625 389.546875 718.496094 388.855469 719.203125 387.46875 C 719.90625 386.085938 720.257812 383.226562 720.257812 378.894531 Z M 720.859375 421.359375 C 720.859375 416.671875 720.382812 413.5625 719.429688 412.027344 C 718.472656 410.492188 716.964844 409.722656 714.902344 409.722656 C 712.890625 409.722656 711.449219 410.464844 710.566406 411.953125 C 709.6875 413.4375 709.25 416.574219 709.25 421.359375 L 709.25 437.226562 C 709.25 442.515625 709.738281 445.914062 710.71875 447.425781 C 711.699219 448.9375 713.246094 449.691406 715.355469 449.691406 C 717.515625 449.691406 718.976562 448.925781 719.730469 447.386719 C 720.484375 445.851562 720.859375 442.390625 720.859375 437 Z M 737.375 396.765625 C 741.847656 398.578125 745.292969 401.289062 747.707031 404.890625 C 750.117188 408.496094 751.324219 417.074219 751.324219 430.632812 C 751.324219 440.511719 750.371094 447.792969 748.460938 452.480469 C 746.550781 457.167969 742.828125 461.007812 737.300781 464.007812 C 731.769531 467.007812 724.355469 468.507812 715.054688 468.507812 C 706.007812 468.507812 698.84375 467.070312 693.5625 464.199219 C 688.285156 461.324219 684.5 457.519531 682.214844 452.78125 C 679.925781 448.046875 678.785156 440.15625 678.785156 429.121094 C 678.785156 421.710938 679.347656 415.285156 680.480469 409.84375 C 681.613281 404.398438 685.167969 400.039062 691.152344 396.765625 C 687.378906 394.953125 684.554688 392.070312 682.667969 388.117188 C 680.78125 384.167969 679.839844 379.144531 679.839844 373.054688 C 679.839844 362.535156 682.753906 354.644531 688.585938 349.382812 C 694.417969 344.125 703.140625 341.492188 714.753906 341.492188 C 728.175781 341.492188 737.449219 344.289062 742.578125 349.875 C 747.707031 355.460938 750.269531 363.441406 750.269531 373.8125 C 750.269531 380.402344 749.425781 385.164062 747.742188 388.082031 C 746.058594 391 742.601562 393.894531 737.375 396.765625 " fill-opacity="1" fill-rule="nonzero"/><path fill="#ff0000" d="M 761.203125 395.894531 L 788.273438 395.894531 L 788.273438 368.695312 L 806.671875 368.695312 L 806.671875 395.894531 L 833.894531 395.894531 L 833.894531 414.332031 L 806.671875 414.332031 L 806.671875 441.378906 L 788.273438 441.378906 L 788.273438 414.332031 L 761.203125 414.332031 L 761.203125 395.894531 " fill-opacity="1" fill-rule="nonzero"/></svg>